/* XPM */
static char *exit_door[] = {
/* columns rows colors chars-per-pixel */
"64 64 3 1 ",
"  c None",
". c #FF0000",
"o c #8B0000",
/* pixels */
"                                                                ",
"                                                                ",
"                                                                ",
"                                                                ",
"                                                                ",
"                                                                ",
"                                                                ",
"                                                                ",
"oooooooooooooooooooooooooooooooooooooooooooooooooooooooooooooooo",
"oooooooooooooooooooooooooooooooooooooooooooooooooooooooooooooooo",
"oo............................................................oo",
"oo............................................................oo",
"oo............................................................oo",
"oo............................................................oo",
"oo............................................................oo",
"oo............................................................oo",
"oo............................................................oo",
"oo............................................................oo",
"oo............................................................oo",
"oo............................................................oo",
"oo............................................................oo",
"oo............................................................oo",
"oo............................................................oo",
"oo............................................................oo",
"oo............................................................oo",
"oo............................................................oo",
"oo............................................................oo",
"oo............................................................oo",
"oo............................................................oo",
"oo............................................................oo",
"oo............................................................oo",
"oo............................................................oo",
"oo............................................................oo",
"oo............................................................oo",
"oo............................................................oo",
"oo............................................................oo",
"oo............................................................oo",
"oo............................................................oo",
"oo............................................................oo",
"oo............................................................oo",
"oo............................................................oo",
"oo............................................................oo",
"oo............................................................oo",
"oo............................................................oo",
"oo............................................................oo",
"oo............................................................oo",
"oo............................................................oo",
"oo............................................................oo",
"oo............................................................oo",
"oo............................................................oo",
"oo............................................................oo",
"oo............................................................oo",
"oo............................................................oo",
"oo............................................................oo",
"oo............................................................oo",
"oo............................................................oo",
"oo............................................................oo",
"oo............................................................oo",
"oo............................................................oo",
"oo............................................................oo",
"oo............................................................oo",
"oo............................................................oo",
"oo............................................................oo",
"oo............................................................oo",
"oo............................................................oo",
"oooooooooooooooooooooooooooooooooooooooooooooooooooooooooooooooo",
"oooooooooooooooooooooooooooooooooooooooooooooooooooooooooooooooo",
"                                                                ",
"                                                                ",
"                                                                ",
"                                                                ",
"                                                                ",
"                                                                ",
"                                                                "
};
