/* XPM */
static char *player[] = {
/* columns rows colors chars-per-pixel */
"64 64 3 1 ",
"  c None",
". c #00FF00",
"o c #008000",
/* pixels */
"                                                                ",
"                                                                ",
"                                                                ",
"                                                                ",
"                                                                ",
"                                                                ",
"                                                                ",
"                                                                ",
"                                                                ",
"                                                                ",
"                                                                ",
"                                                                ",
"                                                                ",
"                                                                ",
"                                                                ",
"                                                                ",
"                                                                ",
"                                                                ",
"                                                                ",
"                                                                ",
"                                                                ",
"                                                                ",
"                      ................                          ",
"                      ................                          ",
"                      ................                          ",
"                      ................                          ",
"                      ................                          ",
"                      ................                          ",
"                      ................                          ",
"                      ................                          ",
"                      ................                          ",
"                      ................                          ",
"                      ................                          ",
"                      ................                          ",
"                      ................                          ",
"                      ................                          ",
"                      ................                          ",
"                      ................                          ",
"                      ................                          ",
"                      ................                          ",
"                      ................                          ",
"                      ................                          ",
"                                                                ",
"                                                                ",
"                                                                ",
"                                                                ",
"                                                                ",
"                                                                ",
"                                                                ",
"                                                                ",
"                                                                ",
"                                                                ",
"                                                                ",
"                                                                ",
"                                                                ",
"                                                                ",
"                                                                ",
"                                                                ",
"                                                                ",
"                                                                ",
"                                                                ",
"                                                                ",
"                                                                ",
"                                                                "
};
